<svg xmlns="http://www.w3.org/2000/svg" xmlns:xlink="http://www.w3.org/1999/xlink" width="50" height="51" viewBox="0 0 50 51">
    <defs>
        <path id="cuim7monma" d="M0 14.167c0 7.824 6.218 14.166 13.889 14.166 7.67 0 13.889-6.342 13.889-14.166C27.778 6.343 21.56 0 13.888 0 6.219 0 0 6.343 0 14.167zM20.191 8.41c.594 0 1.076.492 1.076 1.098v9.395c0 .606-.482 1.098-1.076 1.098H7.587c-.595 0-1.077-.492-1.077-1.098V9.509c0-.606.482-1.098 1.077-1.098H20.19zm-3.662 5.905l-.36.395c-.595.637-1.42.996-2.282.996-.862 0-1.687-.36-2.286-1l-.299-.326-3.41 4.735h11.942l-3.305-4.8zm3.87-4.237l-3.265 3.575 3.265 4.743v-8.318zm-13.021.005v8.25l3.322-4.612-3.322-3.638zm12.55-.788H7.845l4.387 4.804c.389.415.912.668 1.468.714l.187.008c.625 0 1.223-.26 1.65-.718l4.391-4.808z"/>
    </defs>
    <g fill="none" fill-rule="evenodd" transform="translate(11.111 11.333)">
        <mask id="ygm5z5ljjb" fill="#fff">
            <use xlink:href="#cuim7monma"/>
        </mask>
        <use fill="#008BCF" fill-rule="nonzero" xlink:href="#cuim7monma"/>
        <g mask="url(#ygm5z5ljjb)">
            <path fill="#9B9B9B" d="M0 0H50V51H0z" transform="translate(-11.111 -11.333)"/>
        </g>
    </g>
</svg>
