<svg xmlns="http://www.w3.org/2000/svg" xmlns:xlink="http://www.w3.org/1999/xlink" width="50" height="51" viewBox="0 0 50 51">
    <defs>
        <path id="184mq2jcya" d="M13.889 0c7.67 0 13.889 6.343 13.889 14.167s-6.218 14.166-13.89 14.166C6.219 28.333 0 21.991 0 14.167 0 6.343 6.218 0 13.889 0zm-1.48 7.445c-.19-.873-1.025-1.418-1.87-1.233l-2.535.362c-.283.057-.492.25-.571.506-.302 1.055-.454 2.14-.454 3.23 0 6.125 4.785 11.25 10.916 11.81.312.033.622-.104.817-.36l1.349-1.77c.257-.318.38-.743.33-1.166-.049-.423-.265-.807-.6-1.062l-.688-.56-1.174-.893c-.428-.332-.966-.49-1.505-.44-.286.022-.522.148-1.075.511-.373.245-.555.35-.64.37-1.682-.98-2.957-2.55-3.587-4.418.1-.07.261-.166.5-.298.597-.332.791-.46.948-.71.292-.459.397-1.018.29-1.557l-.282-1.442zm-1.72-.362c.412-.088.786.157.87.544l.168.87.282 1.444c.062.313.001.637-.168.904-.04.062-.217.18-.634.411-.588.327-.788.46-.946.709-.07.11-.089.246-.05.37.689 2.287 2.24 4.201 4.312 5.322.182.098.386.05.514-.081.184-.068.397-.2.81-.47.373-.245.567-.349.649-.355.33-.03.652.064.91.265l1.167.888.688.558c.154.118.247.284.269.466.021.183-.032.367-.147.508l-1.358 1.781c-.012.016-.03.024-.047.022-5.696-.52-10.13-5.27-10.13-10.928 0-.973.13-1.94.388-2.877z"/>
    </defs>
    <g fill="none" fill-rule="evenodd" transform="translate(11.111 11.333)">
        <mask id="xp9tv0h95b" fill="#fff">
            <use xlink:href="#184mq2jcya"/>
        </mask>
        <use fill="#008BCF" fill-rule="nonzero" xlink:href="#184mq2jcya"/>
        <g fill="#008BCF" mask="url(#xp9tv0h95b)">
            <path d="M0 0H50.154V51.157H0z" transform="translate(-10.802 -11.019)"/>
        </g>
    </g>
</svg>
