<svg xmlns="http://www.w3.org/2000/svg" xmlns:xlink="http://www.w3.org/1999/xlink" width="50" height="51" viewBox="0 0 50 51">
    <defs>
        <path id="171u3l9roa" d="M15.667 0c7.67 0 13.889 6.343 13.889 14.167s-6.219 14.166-13.89 14.166c-3.399 0-6.513-1.245-8.927-3.313L.217 26.095l2.923-5.803c-.873-1.854-1.362-3.931-1.362-6.125C1.778 6.343 7.996 0 15.667 0zm-1.48 7.445c-.19-.873-1.025-1.418-1.871-1.233l-2.534.362c-.283.057-.493.25-.571.506-.302 1.055-.454 2.14-.454 3.23 0 6.125 4.785 11.25 10.916 11.81.311.033.622-.104.816-.36l1.35-1.77c.257-.318.38-.743.33-1.166-.049-.423-.266-.807-.6-1.062l-.689-.56-1.173-.893c-.428-.332-.966-.49-1.505-.44-.286.022-.522.148-1.075.511-.373.245-.555.35-.64.37-1.682-.98-2.957-2.55-3.588-4.418.101-.07.262-.166.5-.298.598-.332.792-.46.949-.71.292-.459.396-1.018.29-1.557l-.282-1.442zm-1.72-.362c.411-.088.786.157.87.544l.168.87.282 1.444c.062.313.001.637-.169.904-.04.062-.216.18-.634.411-.587.327-.787.46-.946.709-.07.11-.088.246-.05.37.69 2.287 2.24 4.201 4.313 5.322.181.098.386.05.513-.081.185-.068.398-.2.811-.47.373-.245.567-.349.648-.355.33-.03.653.064.911.265l1.167.888.688.558c.154.118.247.284.268.466.022.183-.031.367-.146.508l-1.358 1.781c-.012.016-.03.024-.047.022-5.696-.52-10.131-5.27-10.131-10.928 0-.973.13-1.94.389-2.877z"/>
    </defs>
    <g fill="none" fill-rule="evenodd" transform="translate(9.333 11.333)">
        <mask id="ahfpoyuj4b" fill="#fff">
            <use xlink:href="#171u3l9roa"/>
        </mask>
        <use fill="#008BCF" fill-rule="nonzero" xlink:href="#171u3l9roa"/>
        <g fill="#81CE59" mask="url(#ahfpoyuj4b)">
            <path d="M0 0H50V51H0z" transform="translate(-9.333 -9.917)"/>
        </g>
    </g>
</svg>
